Coordinates
version=1
nRows=7
nColumns=40
inDegrees=yes

Units are S.I. units (second, meters, Newtons, ...)
Angles are in degrees.

endheader
time	pelvis_tilt	pelvis_list	pelvis_rotation	pelvis_tx	pelvis_ty	pelvis_tz	hip_flexion_r	hip_adduction_r	hip_rotation_r	knee_angle_r	knee_angle_r_beta	ankle_angle_r	subtalar_angle_r	mtp_angle_r	hip_flexion_l	hip_adduction_l	hip_rotation_l	knee_angle_l	knee_angle_l_beta	ankle_angle_l	subtalar_angle_l	mtp_angle_l	lumbar_extension	lumbar_bending	lumbar_rotation	arm_flex_r	arm_add_r	arm_rot_r	elbow_flex_r	pro_sup_r	wrist_flex_r	wrist_dev_r	arm_flex_l	arm_add_l	arm_rot_l	elbow_flex_l	pro_sup_l	wrist_flex_l	wrist_dev_l
     28.79000000	     -8.25279932	     -5.93463152	      0.04014387	      1.05055561	      0.92379896	      0.51278219	     18.87182282	      2.74857903	    -13.87767817	     16.74215011	     16.74215011	      8.06158828	      2.01549689	     -3.79478396	     38.47191607	    -12.94939552	      5.09305449	     67.58070284	     67.58070284	      7.68252819	    -18.61048576	     12.65879077	    -14.66907086	      3.98835917	      3.09455479	     14.25216272	    -21.57658429	      6.27544478	     67.26142554	     45.18919515	      0.00000000	      0.00000000	     -7.51200721	     -8.35278612	    -10.65651119	     54.26682459	     45.70079894	      0.00000000	      0.00000000
     28.80157143	     -8.30665395	     -5.89237603	      0.39828635	      1.04893721	      0.92420609	      0.51298696	     18.24741480	      2.73693818	    -13.95460949	     16.38961729	     16.38961729	      8.37105338	      1.88776293	     -3.86217025	     39.79580338	    -12.80159016	      4.90806359	     65.68700569	     65.68700569	      8.12436927	    -18.79566511	     13.00959749	    -14.69332225	      3.94843488	      2.61231664	     16.23733132	    -21.22790364	      6.34688176	     69.08705798	     45.13609092	      0.00000000	      0.00000000	     -7.98487046	     -8.19665026	    -10.44846649	     52.68549454	     45.68125276	      0.00000000	      0.00000000
     28.81314286	     -8.37409569	     -5.82728487	      0.71600296	      1.04731118	      0.92453485	      0.51318400	     17.64678785	      2.71928325	    -13.96787716	     16.03381118	     16.03381118	      8.66911344	      1.75850675	     -3.92109286	     40.93717147	    -12.61772670	      4.64311314	     63.54259845	     63.54259845	      8.50308329	    -18.92990554	     13.40062562	    -14.72309012	      3.86437027	      2.43963266	     18.08569709	    -21.11140751	      6.43474072	     70.69167585	     45.08917485	      0.00000000	      0.00000000	     -8.28147085	     -7.98094717	    -10.26285425	     51.25099226	     45.65996922	      0.00000000	      0.00000000
     28.82471429	     -8.43646815	     -5.82439618	      1.06561111	      1.04577144	      0.92484543	      0.51319118	     17.00993424	      2.75965616	    -14.02417367	     15.60180825	     15.60180825	      8.84232327	      1.56424569	     -4.19289937	     41.93687626	    -12.39007698	      4.49694504	     61.22646413	     61.22646413	      9.14013367	    -18.95450793	     14.79465211	    -14.69724627	      3.98436865	      2.54974002	     19.52489743	    -21.80577190	      7.76836657	     73.64833056	     44.96279587	      0.00000000	      0.00000000	     -7.28840151	     -7.60877256	    -10.14779274	     46.67534696	     45.67622936	      0.00000000	      0.00000000
     28.83628571	     -8.49999400	     -5.73960085	      1.37016994	      1.04422190	      0.92510345	      0.51313992	     16.41644122	      2.70340278	    -14.06927566	     15.25466644	     15.25466644	      9.11503627	      1.47407290	     -4.22562997	     42.71750091	    -12.09320912	      4.23902346	     58.62220124	     58.62220124	      9.34920852	    -18.98792669	     15.19234796	    -14.73714255	      3.92083719	      2.41916602	     21.37308676	    -21.54248514	      7.50638942	     75.06234156	     44.93577322	      0.00000000	      0.00000000	     -7.68255648	     -7.45441908	    -10.00784004	     45.74429850	     45.66056938	      0.00000000	      0.00000000
     28.84785714	     -8.55038602	     -5.75384425	      1.69098891	      1.04276947	      0.92527032	      0.51295744	     15.75666774	      2.75453252	    -14.19480235	     14.80393802	     14.80393802	      9.34908164	      1.46242008	     -4.43344028	     43.39219932	    -11.78126505	      4.19403793	     55.91082995	     55.91082995	      9.66287943	    -18.93896510	     15.97769085	    -14.73882709	      4.00814112	      2.43817991	     22.84642895	    -21.72873661	      7.96129960	     77.64333387	     44.85921924	      0.00000000	      0.00000000	     -7.01017092	     -7.20341871	     -9.94507435	     42.18663889	     45.68764680	      0.00000000	      0.00000000
     28.85942857	     -8.61600709	     -5.69784174	      1.97652447	      1.04128678	      0.92538705	      0.51262520	     15.14716275	      2.71770797	    -14.29017943	     14.41197158	     14.41197158	      9.58428310	      1.46664089	     -4.46484997	     43.89596480	    -11.37016538	      4.15071902	     52.97976682	     52.97976682	      9.80247072	    -18.85898065	     16.22810322	    -14.75592975	      3.97821359	      2.26999655	     24.62203831	    -21.32191981	      7.76553369	     79.25223331	     44.82606454	      0.00000000	      0.00000000	     -7.33453150	     -7.10569512	     -9.88042228	     41.14438521	     45.68384482	      0.00000000	      0.00000000
